<svg width="42" height="42" viewBox="0 0 42 42" fill="none" xmlns="http://www.w3.org/2000/svg">
<rect x="1" y="1" width="40" height="40" stroke="#222222" stroke-linecap="round"/>
<g clip-path="url(#clip0_702_156)">
<path d="M26.6023 21.0329H28.0273C28.3495 21.0329 28.6116 20.7708 28.6116 20.4487V19.0237C28.6116 18.7015 28.3495 18.4394 28.0273 18.4394H26.6023C26.2802 18.4394 26.0181 18.7015 26.0181 19.0237V20.4487C26.0181 20.7708 26.2802 21.0329 26.6023 21.0329ZM26.6166 19.0379H28.0131V20.4344H26.6166V19.0379ZM26.6023 24.8234H28.0273C28.3495 24.8234 28.6116 24.5613 28.6116 24.2391V22.8141C28.6116 22.492 28.3495 22.2299 28.0273 22.2299H26.6023C26.2802 22.2299 26.0181 22.492 26.0181 22.8141V24.2391C26.0181 24.5613 26.2802 24.8234 26.6023 24.8234ZM26.6166 22.8284H28.0131V24.2249H26.6166V22.8284ZM22.5359 21.0329H23.9609C24.2831 21.0329 24.5452 20.7708 24.5452 20.4487V19.0237C24.5452 18.7015 24.2831 18.4394 23.9609 18.4394H22.5359C22.2138 18.4394 21.9517 18.7015 21.9517 19.0237V20.4487C21.9517 20.7708 22.2138 21.0329 22.5359 21.0329ZM22.5502 19.0379H23.9467V20.4344H22.5502V19.0379ZM15.8281 25.8426H14.4031C14.081 25.8426 13.8189 26.1047 13.8189 26.4269V27.8519C13.8189 28.174 14.081 28.4361 14.4031 28.4361H15.8281C16.1502 28.4361 16.4123 28.174 16.4123 27.8519V26.4269C16.4123 26.1047 16.1502 25.8426 15.8281 25.8426ZM15.8139 27.8376H14.4174V26.4411H15.8139V27.8376ZM15.8281 18.4394H14.4031C14.081 18.4394 13.8189 18.7015 13.8189 19.0237V20.4487C13.8189 20.7708 14.081 21.0329 14.4031 21.0329H15.8281C16.1502 21.0329 16.4123 20.7708 16.4123 20.4487V19.0237C16.4123 18.7015 16.1502 18.4394 15.8281 18.4394ZM15.8139 20.4344H14.4174V19.0379H15.8139V20.4344ZM22.5359 24.7345H23.9609C24.2831 24.7345 24.5452 24.4724 24.5452 24.1503V22.7253C24.5452 22.4031 24.2831 22.141 23.9609 22.141H22.5359C22.2138 22.141 21.9517 22.4031 21.9517 22.7253V24.1503C21.9517 24.4724 22.2138 24.7345 22.5359 24.7345ZM22.5502 22.7395H23.9467V24.136H22.5502V22.7395ZM28.9088 12.3675H27.6293V11.91C27.6293 11.4082 27.2211 11 26.7194 11H26.5819C26.0802 11 25.672 11.4082 25.672 11.91V12.3675H16.7584V11.91C16.7584 11.4082 16.3502 11 15.8484 11H15.711C15.2093 11 14.801 11.4082 14.801 11.91V12.3675H13.5217C12.6955 12.3675 12.0234 13.0396 12.0234 13.8657V29.9323C12.0234 30.7574 12.6946 31.4286 13.5197 31.4286H28.9108C29.7359 31.4286 30.4071 30.7574 30.4071 29.9323V13.8657C30.407 13.0396 29.7349 12.3675 28.9088 12.3675ZM26.2705 11.91C26.2705 11.7382 26.4102 11.5985 26.582 11.5985H26.7194C26.8912 11.5985 27.0309 11.7382 27.0309 11.91V12.3675H26.2705V11.91ZM15.3996 11.91C15.3996 11.7382 15.5393 11.5985 15.7111 11.5985H15.8485C16.0203 11.5985 16.16 11.7382 16.16 11.91V12.3675H15.3996L15.3996 11.91ZM29.8085 29.9323C29.8085 30.4274 29.4058 30.8301 28.9108 30.8301H13.5196C13.0246 30.8301 12.6219 30.4274 12.6219 29.9323V29.9305C12.8726 30.1194 13.1843 30.2316 13.5217 30.2316H25.6544C26.0546 30.2316 26.4309 30.0757 26.7139 29.7927L29.8085 26.698V29.9323ZM26.4085 29.2517C26.432 29.1549 26.4447 29.0539 26.4447 28.9499V26.9524C26.4447 26.5757 26.7512 26.2693 27.1279 26.2693H29.1254C29.2293 26.2693 29.3303 26.2565 29.4271 26.2331L26.4085 29.2517ZM29.8085 16.644H17.0577C16.8924 16.644 16.7584 16.7779 16.7584 16.9432C16.7584 17.1085 16.8924 17.2424 17.0577 17.2424H29.8085V24.9877C29.8085 25.3644 29.5021 25.6708 29.1254 25.6708H27.1279C26.4212 25.6708 25.8462 26.2458 25.8462 26.9524V28.95C25.8462 29.3267 25.5398 29.6331 25.1631 29.6331H13.5217C13.0256 29.6331 12.6219 29.2295 12.6219 28.7334V17.2424H15.8607C16.026 17.2424 16.1599 17.1085 16.1599 16.9432C16.1599 16.7779 16.026 16.644 15.8607 16.644H12.6219V13.8657C12.6219 13.3696 13.0255 12.966 13.5216 12.966H14.801V13.8459C14.801 14.3477 15.2093 14.7559 15.711 14.7559C15.8763 14.7559 16.0103 14.6219 16.0103 14.4566C16.0103 14.2914 15.8763 14.1574 15.711 14.1574C15.5393 14.1574 15.3995 14.0176 15.3995 13.8459V12.966H25.672V13.8459C25.672 14.3477 26.0802 14.7559 26.582 14.7559C26.7472 14.7559 26.8812 14.6219 26.8812 14.4566C26.8812 14.2914 26.7472 14.1574 26.582 14.1574C26.4102 14.1574 26.2705 14.0176 26.2705 13.8459V12.966H28.9088C29.4049 12.966 29.8085 13.3696 29.8085 13.8657V16.644ZM15.8281 22.141H14.4031C14.081 22.141 13.8189 22.4031 13.8189 22.7253V24.1503C13.8189 24.4724 14.081 24.7345 14.4031 24.7345H15.8281C16.1502 24.7345 16.4123 24.4724 16.4123 24.1503V22.7253C16.4123 22.4031 16.1502 22.141 15.8281 22.141ZM15.8139 24.136H14.4174V22.7395H15.8139V24.136ZM18.4695 21.0329H19.8945C20.2167 21.0329 20.4788 20.7708 20.4788 20.4487V19.0237C20.4788 18.7015 20.2167 18.4394 19.8945 18.4394H18.4695C18.1474 18.4394 17.8853 18.7015 17.8853 19.0237V20.4487C17.8853 20.7708 18.1474 21.0329 18.4695 21.0329ZM18.4838 19.0379H19.8803V20.4344H18.4838V19.0379ZM22.5498 27.8376C22.5424 27.6789 22.4114 27.5526 22.2509 27.5526C22.0856 27.5526 21.9516 27.6866 21.9516 27.8519C21.9516 28.174 22.2137 28.4361 22.5359 28.4361H23.9609C24.283 28.4361 24.5451 28.174 24.5451 27.8519V26.4269C24.5451 26.1047 24.283 25.8426 23.9609 25.8426H22.5359C22.2137 25.8426 21.9516 26.1047 21.9516 26.4269V26.8378C21.9516 27.0031 22.0856 27.1371 22.2509 27.1371C22.4162 27.1371 22.5501 27.0031 22.5501 26.8378V26.4411H23.9466V27.8376H22.5498ZM18.4695 24.7345H19.8945C20.2167 24.7345 20.4788 24.4724 20.4788 24.1503V22.7253C20.4788 22.4031 20.2167 22.141 19.8945 22.141H18.4695C18.1474 22.141 17.8853 22.4031 17.8853 22.7253V24.1503C17.8853 24.4724 18.1474 24.7345 18.4695 24.7345ZM18.4838 22.7395H19.8803V24.136H18.4838V22.7395ZM18.4695 28.4361H19.8945C20.2167 28.4361 20.4788 28.174 20.4788 27.8519V26.4269C20.4788 26.1047 20.2167 25.8426 19.8945 25.8426H18.4695C18.1474 25.8426 17.8853 26.1047 17.8853 26.4269V27.8519C17.8853 28.174 18.1474 28.4361 18.4695 28.4361ZM18.4838 26.4411H19.8803V27.8376H18.4838V26.4411Z" fill="#585858" stroke="#585858" stroke-width="0.3"/>
</g>
<defs>
<clipPath id="clip0_702_156">
<rect width="20.4286" height="20.4286" fill="white" transform="translate(11 11)"/>
</clipPath>
</defs>
</svg>
