<svg viewBox="0 0 488 293" fill="none" xmlns="http://www.w3.org/2000/svg">
  <path
    d="M137.856 107.391C137.856 114.209 136.999 120.385 135.284 125.917C133.57 131.394 130.971 136.117 127.485 140.084C124.057 143.997 119.743 147.014 114.543 149.138C109.344 151.261 103.288 152.323 96.3737 152.323C93.231 152.323 90.1172 152.128 87.0317 151.737C84.0036 151.401 80.8036 150.842 77.4326 150.06C77.6613 147.601 77.8895 145.142 78.1183 142.683C78.347 140.224 78.5752 137.765 78.8039 135.306C78.9753 133.965 79.518 132.903 80.4323 132.121C81.3467 131.282 82.6607 130.863 84.3748 130.863C85.346 130.863 86.5748 131.031 88.0602 131.366C89.6029 131.702 91.4885 131.869 93.7168 131.869C96.8022 131.869 99.4875 131.45 101.773 130.612C104.059 129.773 105.973 128.404 107.516 126.504C109.058 124.604 110.201 122.145 110.944 119.127C111.744 116.053 112.144 112.337 112.144 107.978V29.3462H137.856V107.391Z"
    fill="#222222" />
  <path
    d="M206.603 51.9741C200.833 52.2533 196.033 52.7563 192.205 53.483C188.376 54.1536 185.32 55.048 183.034 56.1655C180.806 57.2831 179.206 58.5688 178.235 60.0217C177.32 61.419 176.863 62.9557 176.863 64.6323C176.863 67.9854 177.806 70.3604 179.692 71.7578C181.634 73.1551 184.32 73.8535 187.748 73.8535C191.691 73.8535 195.09 73.1828 197.947 71.8416C200.861 70.4442 203.747 68.293 206.603 65.3867V51.9741ZM158.436 13.6642C163.636 9.08132 169.378 5.67261 175.663 3.437C181.948 1.14584 188.748 0 196.062 0C201.318 0 206.004 0.838299 210.117 2.51488C214.289 4.19146 217.803 6.53868 220.659 9.55653C223.573 12.5183 225.802 16.0674 227.344 20.2028C228.887 24.3382 229.658 28.865 229.658 33.7832V88.1044H218.859C216.631 88.1044 214.917 87.7969 213.717 87.1823C212.574 86.5677 211.632 85.282 210.889 83.3262L209.003 77.7934C206.775 79.6937 204.604 81.3703 202.49 82.8232C200.433 84.2761 198.29 85.5057 196.062 86.5117C193.833 87.4616 191.433 88.1883 188.862 88.6912C186.348 89.1942 183.52 89.4457 180.377 89.4457C176.492 89.4457 172.949 88.9427 169.75 87.9368C166.55 86.9308 163.779 85.4497 161.436 83.4938C159.15 81.4819 157.38 78.9948 156.122 76.033C154.865 73.0712 154.237 69.662 154.237 65.8059C154.237 62.6204 155.065 59.4349 156.722 56.2494C158.379 53.0639 161.207 50.1859 165.207 47.6149C169.264 44.9885 174.635 42.8367 181.32 41.1601C188.062 39.4275 196.49 38.4498 206.603 38.2261V33.7832C206.603 28.362 205.432 24.3943 203.089 21.8794C200.747 19.3085 197.376 18.0233 192.976 18.0233C189.719 18.0233 187.005 18.4146 184.834 19.1969C182.663 19.9236 180.748 20.7336 179.092 21.6279C177.492 22.4662 175.978 23.2767 174.549 24.059C173.121 24.7857 171.464 25.1487 169.578 25.1487C167.921 25.1487 166.521 24.7574 165.379 23.9751C164.293 23.1368 163.379 22.1587 162.636 21.0411L158.436 13.6642Z"
    fill="#222222" />
  <path
    d="M313.993 76.1467C313.993 77.7672 313.708 79.3599 313.136 80.9249C312.565 82.4338 311.822 83.6635 310.908 84.6134L271.226 135.749H325.016V153.186H243.886V143.629C243.886 142.679 244.143 141.477 244.657 140.024C245.229 138.572 246 137.202 246.971 135.917L286.996 84.1943H246.371V66.7578H313.993V76.1467Z"
    fill="#222222" />
  <path
    d="M408.107 9.38885C408.107 11.0094 407.821 12.6021 407.25 14.1671C406.678 15.676 405.935 16.9057 405.022 17.8556L365.339 68.9913H406.993V86.4278H337.999V76.8713C337.999 75.9214 338.256 74.7195 338.77 73.2666C339.341 71.8137 340.113 70.4442 341.084 69.159L381.109 17.4364H340.485V0H408.107V9.38885Z"
    fill="#222222" />
  <path
    d="M22.1979 218.7C24.9976 213.782 28.2259 209.898 31.8827 207.048C35.5395 204.198 39.8248 202.773 44.7384 202.773C48.7382 202.773 51.9951 203.695 54.509 205.539L52.9662 222.64C52.6807 223.758 52.2238 224.541 51.5949 224.988C51.0239 225.379 50.2236 225.575 49.1952 225.575C48.2813 225.575 46.9668 225.463 45.2527 225.239C43.5385 224.96 41.9389 224.82 40.4534 224.82C38.2821 224.82 36.3395 225.128 34.6254 225.742C32.9683 226.357 31.4828 227.223 30.1686 228.341C28.8544 229.458 27.6545 230.828 26.569 232.448C25.5405 234.069 24.5691 235.913 23.6549 237.981V290.877H0V204.45H13.9701C16.3699 204.45 18.0269 204.869 18.9411 205.707C19.8553 206.545 20.5124 207.998 20.9123 210.066L22.1979 218.7Z"
    fill="#222222" />
  <path
    d="M116.579 237.477C116.579 235.074 116.236 232.782 115.551 230.603C114.922 228.423 113.894 226.495 112.465 224.819C111.037 223.142 109.237 221.829 107.066 220.879C104.895 219.873 102.295 219.37 99.2666 219.37C93.61 219.37 89.1822 220.935 85.9821 224.064C82.7826 227.194 80.6972 231.665 79.7255 237.477H116.579ZM79.3827 251.225C80.1257 259.328 82.4681 265.252 86.4106 268.997C90.4104 272.741 95.6101 274.613 102.009 274.613C105.266 274.613 108.066 274.25 110.408 273.523C112.808 272.741 114.894 271.903 116.665 271.008C118.494 270.059 120.122 269.22 121.55 268.494C123.036 267.711 124.493 267.32 125.921 267.32C127.75 267.32 129.178 267.991 130.207 269.332L137.063 277.715C134.549 280.565 131.778 282.94 128.75 284.84C125.721 286.685 122.579 288.166 119.322 289.283C116.065 290.345 112.78 291.071 109.466 291.463C106.152 291.91 102.952 292.133 99.8665 292.133C93.6957 292.133 87.925 291.155 82.5538 289.199C77.2401 287.188 72.5835 284.253 68.5837 280.397C64.6412 276.485 61.5274 271.651 59.2417 265.895C56.9566 260.138 55.8135 253.46 55.8135 245.86C55.8135 239.992 56.7852 234.459 58.7275 229.262C60.7277 224.064 63.5844 219.537 67.2981 215.681C71.0124 211.825 75.5259 208.78 80.8397 206.544C86.1535 204.253 92.153 203.107 98.8381 203.107C104.495 203.107 109.694 204.001 114.437 205.789C119.236 207.522 123.35 210.065 126.778 213.418C130.264 216.771 132.949 220.906 134.835 225.825C136.778 230.687 137.749 236.247 137.749 242.507C137.749 244.239 137.663 245.664 137.492 246.782C137.32 247.899 137.035 248.794 136.635 249.464C136.235 250.135 135.692 250.61 135.006 250.89C134.32 251.113 133.435 251.225 132.349 251.225H79.3827Z"
    fill="#222222" />
  <path
    d="M174.078 214.508C175.849 212.831 177.677 211.294 179.563 209.897C181.506 208.5 183.534 207.298 185.648 206.292C187.819 205.286 190.133 204.504 192.59 203.945C195.104 203.386 197.818 203.107 200.732 203.107C205.532 203.107 209.789 203.917 213.502 205.538C217.216 207.158 220.331 209.422 222.844 212.328C225.416 215.234 227.33 218.699 228.587 222.723C229.901 226.747 230.558 231.162 230.558 235.968V290.876H206.989V235.968C206.989 231.162 205.846 227.445 203.561 224.819C201.275 222.136 197.904 220.795 193.447 220.795C190.133 220.795 187.019 221.493 184.105 222.891C181.191 224.288 178.42 226.244 175.792 228.759V290.876H152.137V204.448H166.707C169.678 204.448 171.649 205.789 172.621 208.472L174.078 214.508Z"
    fill="#222222" />
  <path
    d="M301.298 226.916C299.069 224.401 296.64 222.641 294.013 221.635C291.441 220.629 288.699 220.126 285.785 220.126C282.928 220.126 280.328 220.656 277.986 221.718C275.643 222.78 273.615 224.457 271.9 226.748C270.243 228.984 268.957 231.862 268.044 235.383C267.129 238.903 266.672 243.095 266.672 247.957C266.672 252.763 267.044 256.843 267.786 260.196C268.529 263.549 269.586 266.26 270.958 268.327C272.386 270.395 274.1 271.904 276.1 272.854C278.1 273.749 280.328 274.196 282.785 274.196C286.956 274.196 290.441 273.385 293.241 271.764C296.098 270.144 298.783 267.852 301.298 264.89V226.916ZM324.952 142.482V290.878H310.382C307.354 290.878 305.411 289.536 304.554 286.854L302.583 279.309C300.812 281.209 298.926 282.942 296.927 284.507C294.984 286.071 292.869 287.441 290.584 288.614C288.299 289.732 285.842 290.598 283.214 291.213C280.585 291.827 277.728 292.135 274.643 292.135C269.9 292.135 265.558 291.157 261.616 289.201C257.673 287.245 254.245 284.395 251.331 280.65C248.474 276.85 246.245 272.211 244.646 266.735C243.046 261.258 242.246 254.999 242.246 247.957C242.246 241.53 243.132 235.55 244.903 230.018C246.731 224.485 249.302 219.707 252.617 215.683C255.93 211.659 259.93 208.501 264.615 206.21C269.3 203.919 274.5 202.773 280.214 202.773C285.013 202.773 289.042 203.471 292.298 204.869C295.612 206.266 298.612 208.166 301.298 210.569V142.482H324.952Z"
    fill="#222222" />
  <path
    d="M400.345 237.477C400.345 235.074 400.002 232.782 399.316 230.603C398.688 228.423 397.66 226.495 396.231 224.819C394.803 223.142 393.003 221.829 390.831 220.879C388.66 219.873 386.061 219.37 383.032 219.37C377.376 219.37 372.948 220.935 369.748 224.064C366.548 227.194 364.463 231.665 363.491 237.477H400.345ZM363.148 251.225C363.891 259.328 366.234 265.252 370.176 268.997C374.176 272.741 379.376 274.613 385.775 274.613C389.032 274.613 391.832 274.25 394.174 273.523C396.574 272.741 398.66 271.903 400.431 271.008C402.259 270.059 403.888 269.22 405.316 268.494C406.802 267.711 408.259 267.32 409.687 267.32C411.516 267.32 412.944 267.991 413.972 269.332L420.829 277.715C418.315 280.565 415.544 282.94 412.515 284.84C409.487 286.685 406.344 288.166 403.087 289.283C399.831 290.345 396.545 291.071 393.231 291.463C389.918 291.91 386.718 292.133 383.632 292.133C377.461 292.133 371.691 291.155 366.319 289.199C361.006 287.188 356.349 284.253 352.349 280.397C348.407 276.485 345.293 271.651 343.007 265.895C340.722 260.138 339.579 253.46 339.579 245.86C339.579 239.992 340.551 234.459 342.493 229.262C344.493 224.064 347.35 219.537 351.064 215.681C354.778 211.825 359.292 208.78 364.605 206.544C369.919 204.253 375.919 203.107 382.604 203.107C388.26 203.107 393.46 204.001 398.202 205.789C403.002 207.522 407.116 210.065 410.544 213.418C414.029 216.771 416.715 220.906 418.6 225.825C420.543 230.687 421.514 236.247 421.514 242.507C421.514 244.239 421.429 245.664 421.257 246.782C421.086 247.899 420.8 248.794 420.4 249.464C420 250.135 419.457 250.61 418.772 250.89C418.086 251.113 417.201 251.225 416.115 251.225H363.148Z"
    fill="#222222" />
  <path
    d="M455.679 218.7C458.478 213.782 461.707 209.898 465.364 207.048C469.02 204.198 473.305 202.773 478.22 202.773C482.219 202.773 485.476 203.695 487.99 205.539L486.447 222.64C486.161 223.758 485.704 224.541 485.076 224.988C484.504 225.379 483.705 225.575 482.676 225.575C481.762 225.575 480.448 225.463 478.734 225.239C477.02 224.96 475.42 224.82 473.934 224.82C471.763 224.82 469.82 225.128 468.106 225.742C466.449 226.357 464.964 227.223 463.65 228.341C462.335 229.458 461.135 230.828 460.05 232.448C459.021 234.069 458.05 235.913 457.136 237.981V290.877H433.481V204.45H447.451C449.851 204.45 451.508 204.869 452.422 205.707C453.336 206.545 453.993 207.998 454.393 210.066L455.679 218.7Z"
    fill="#222222" />
</svg>