<svg width="32" height="32" viewBox="0 0 32 32" fill="none" xmlns="http://www.w3.org/2000/svg">
<path fill-rule="evenodd" clip-rule="evenodd" d="M23.0005 12.0005V20.6672C23.0005 24.5332 19.8665 27.6672 16.0005 27.6672C12.1345 27.6672 9.00049 24.5331 9.00049 20.6672V12.0005C9.00049 8.13449 12.1345 5.00049 16.0005 5.00049C19.8665 5.00049 23.0005 8.1345 23.0005 12.0005ZM7.00049 12.0005C7.00049 7.02992 11.0299 3.00049 16.0005 3.00049C20.9711 3.00049 25.0005 7.02993 25.0005 12.0005V20.6672C25.0005 25.6377 20.9711 29.6672 16.0005 29.6672C11.0299 29.6672 7.00049 25.6377 7.00049 20.6672V12.0005ZM17.1979 9.33447C17.1979 8.78219 16.7501 8.33447 16.1979 8.33447C15.6456 8.33447 15.1979 8.78219 15.1979 9.33447V13.3345C15.1979 13.8868 15.6456 14.3345 16.1979 14.3345C16.7501 14.3345 17.1979 13.8868 17.1979 13.3345V9.33447Z" fill="#222222"/>
</svg>
